<svg width="1921" height="856" viewBox="0 0 1921 856" fill="none" xmlns="http://www.w3.org/2000/svg">
<path d="M1924 856H0V437.817L655 418.5L1924 458.5V856Z" fill="#F3E7DE"/>
<path d="M974.494 647.765L676.468 543.08V479.106V220.882V175.519V124.921L974.494 2.78839L1269.23 124.921V175.519V220.882V479.106V543.08L974.494 647.765Z" fill="#2A251F"/>
<path d="M809.044 193.316L901.63 174.356L901.63 233.677L809.045 247.054L809.044 193.316Z" fill="#F8A03D"/>
<path d="M1034.33 175.287L1123.51 194.13L1123.51 246.472L1034.33 229.025L1034.33 175.287Z" fill="#F8A03D"/>
<path d="M1153.9 203.536L1224.6 219.719L1224.6 266.246L1155.11 257.138L1153.9 203.536Z" fill="#F8A03D"/>
<path d="M1254.12 226.117L1269.23 230.769L1269.23 273.807L1254.12 271.12L1254.12 226.117Z" fill="#F8A03D"/>
<path d="M708.757 217.963L780.248 201.878L781.23 257.603L709.646 268.443L708.757 217.963Z" fill="#F8A03D"/>
<path d="M676.468 228.443L688.521 224.954L689.616 270.317L676.468 272.062L676.468 228.443Z" fill="#F8A03D"/>
<path d="M952.583 158.924L998.635 158.924L998.635 220.19L949.841 220.19L952.583 158.924Z" fill="#F8A03D"/>
<path d="M783.844 226.698L794.294 207.506L805.21 222.627L794.293 243.213L783.844 226.698Z" fill="#F8A03D"/>
<path d="M909.849 200.527L923.323 176.682L937.789 195.353L923.323 218.556L909.849 200.527Z" fill="#F8A03D"/>
<path d="M1000.57 198.421L1014.05 174.576L1028.51 193.247L1014.05 216.451L1000.57 198.421Z" fill="#F8A03D"/>
<path d="M1131.13 222.804L1142.31 208.669L1152.39 225.292L1141.63 241.938L1131.13 222.804Z" fill="#F8A03D"/>
<path d="M1227.6 247.054L1235.44 233.096L1242.39 247.054L1235.44 261.593L1227.6 247.054Z" fill="#F8A03D"/>
<path d="M693.256 246.001L701.971 231.734L707.695 246.001L700.642 257.463L693.256 246.001Z" fill="#F8A03D"/>
<path d="M676.468 174.356L974.494 73.7418V136.553L676.468 219.719V174.356Z" fill="#F8A03D"/>
<path d="M676.468 355.81H972.302L976.685 527.959L676.468 478.524V355.81Z" fill="white"/>
<path d="M1269.23 477.361L975.59 527.959L975.59 355.81L1269.23 375.002L1269.23 477.361Z" fill="white"/>
<path d="M1269.23 219.719L974.493 136.553L974.493 73.7415L1269.23 175.519L1269.23 219.719Z" fill="#F8A03D"/>
<path d="M770.697 364.821C770.697 412.329 759.915 475.035 717.558 475.035C675.2 475.035 676.472 406.952 676.472 359.445C676.472 311.937 679.584 290.091 721.941 290.091C751.422 290.091 763.483 303.278 768.092 327.312C789.323 310.446 770.697 350.378 770.697 364.821Z" fill="#2A251F"/>
<path d="M912.587 349.994C912.587 397.502 876.056 488.411 833.698 488.411C791.34 488.411 770.148 397.502 770.148 349.994C770.148 302.486 796.274 277.296 838.631 277.296C880.989 277.296 912.587 302.486 912.587 349.994Z" fill="#2A251F"/>
<path d="M1167.16 341.159C1167.16 386.874 1186.06 468.757 1228.19 468.757C1270.32 468.757 1269.05 403.244 1269.05 357.529C1269.05 311.814 1265.96 290.792 1223.83 290.792C1181.7 290.792 1167.16 295.445 1167.16 341.159Z" fill="#2A251F"/>
<path d="M1029.28 341.852C1029.28 389.36 1069.65 489.574 1112 489.574C1154.36 489.574 1168.43 403.899 1168.43 356.391C1168.43 308.884 1149.43 278.459 1107.07 278.459C1064.71 278.459 1029.28 294.344 1029.28 341.852Z" fill="#2A251F"/>
<path d="M1037.87 365.816C1037.87 413.324 1012.84 489.112 970.484 489.112C928.126 489.112 914.056 403.437 914.056 355.929C914.056 308.422 933.059 277.997 975.417 277.997C1017.77 277.997 1037.87 318.309 1037.87 365.816Z" fill="#2A251F"/>
<path d="M672.524 124.401L975.041 2.78848L972.705 527.263L677.797 470.336L672.524 124.401Z" fill="#646464" fill-opacity="0.1"/>
<path d="M1269.06 124.459L976.966 2.32648L973.223 528.66L1269.06 476.899L1269.06 124.459Z" fill="black" fill-opacity="0.5"/>
<path d="M676.469 478.524L973.946 527.377L973.946 647.765L676.469 543.08L676.469 478.524Z" fill="#5E483A"/>
<path d="M677.016 494.809V523.888M677.016 494.809L708.79 501.465M677.016 494.809V478.524L715.912 484.922M973.946 556.076L973.398 612.289M973.946 556.076L923.544 546.453M973.946 556.076V527.959L902.726 516.327M973.398 612.289L932.858 600.197M973.398 612.289V647.184L932.31 632.644M677.016 523.888L700.025 530.751M677.016 523.888V542.881L699.477 550.641M708.79 501.465V533.365M708.79 501.465L715.912 502.957M708.79 533.365L700.025 530.751M708.79 533.365L726.869 538.757M763.027 512.827V549.542M763.027 512.827L715.912 502.957M763.027 512.827L770.149 514.319M763.027 549.542L753.713 546.764M763.027 549.542L784.393 555.915M822.741 525.336V567.353M822.741 525.336L770.149 514.319M822.741 525.336L839.177 528.779M822.741 567.353L815.457 565.18M822.741 567.353L861.638 578.955M873.691 536.009V582.549M873.691 536.009L839.177 528.779M873.691 536.009L902.726 542.092M873.691 582.549L923.544 597.419M873.691 582.549L861.638 578.955M923.544 546.453V597.419M923.544 546.453L902.726 542.092M923.544 597.419L932.858 600.197M700.025 530.751L699.477 550.641M699.477 550.641L725.774 559.946M726.869 538.757L725.774 559.946M726.869 538.757L753.713 546.764M725.774 559.946L752.618 569.251M753.713 546.764L752.618 569.251M752.618 569.251L782.201 579.72M784.393 555.915L782.201 579.72M784.393 555.915L815.457 565.18M782.201 579.72L815.457 591.352M815.457 565.18V591.352M815.457 591.352L861.638 607.636M861.638 578.955V607.636M861.638 607.636L932.31 632.644M932.858 600.197L932.31 632.644M715.912 502.957V484.922M715.912 484.922L770.149 494.809M770.149 494.809V514.319M770.149 494.809L838.081 505.859M838.081 505.859L839.177 528.779M838.081 505.859L902.726 516.327M902.726 516.327V542.092" stroke="#8E8E8E"/>
<path d="M1269.23 494.809V523.888M1269.23 494.809L1237.69 501.465M1269.23 494.809V478.524L1230.62 484.922M975.038 556.897V612.289M975.038 556.897L1024.52 546.453M975.038 556.897V528.779L1045.19 516.327M975.038 612.289L1015.28 600.197M975.038 612.289L974.494 647.184L1015.82 632.644M1269.23 523.888L1246.39 530.751M1269.23 523.888V542.881L1246.94 550.641M1237.69 501.465V533.365M1237.69 501.465L1230.62 502.957M1237.69 533.365L1246.39 530.751M1237.69 533.365L1219.75 538.757M1183.86 512.827V549.542M1183.86 512.827L1230.62 502.957M1183.86 512.827L1176.79 514.319M1183.86 549.542L1193.1 546.764M1183.86 549.542L1162.65 555.915M1124.58 525.336V567.353M1124.58 525.336L1176.79 514.319M1124.58 525.336L1108.27 528.779M1124.58 567.353L1131.81 565.18M1124.58 567.353L1085.97 578.955M1074.01 536.009V582.549M1074.01 536.009L1108.27 528.779M1074.01 536.009L1045.19 542.092M1074.01 582.549L1024.52 597.419M1074.01 582.549L1085.97 578.955M1024.52 546.453V597.419M1024.52 546.453L1045.19 542.092M1024.52 597.419L1015.28 600.197M1246.39 530.751L1246.94 550.641M1246.94 550.641L1220.83 559.946M1219.75 538.757L1220.83 559.946M1219.75 538.757L1193.1 546.764M1220.83 559.946L1194.19 569.251M1193.1 546.764L1194.19 569.251M1194.19 569.251L1164.82 579.72M1162.65 555.915L1164.82 579.72M1162.65 555.915L1131.81 565.18M1164.82 579.72L1131.81 591.352M1131.81 565.18V591.352M1131.81 591.352L1085.97 607.636M1085.97 578.955V607.636M1085.97 607.636L1015.82 632.644M1015.28 600.197L1015.82 632.644M1230.62 502.957V484.922M1230.62 484.922L1176.79 494.809M1176.79 494.809V514.319M1176.79 494.809L1109.36 505.859M1109.36 505.859L1108.27 528.779M1109.36 505.859L1045.19 516.327M1045.19 516.327V542.092" stroke="#8E8E8E"/>
<path opacity="0.4" d="M1269.6 542.618L1050.47 703.717L975.962 646.14L776.547 780.486L642.874 859L628.537 856.955C554.592 846.405 496.062 789.062 484 715.349L674.649 542.618L975.962 646.14L1269.6 542.618Z" fill="black" fill-opacity="0.1"/>
</svg>
